<?xml version="1.0" standalone="no"?>
<!DOCTYPE svg PUBLIC "-//W3C//DTD SVG 20010904//EN"
 "http://www.w3.org/TR/2001/REC-SVG-20010904/DTD/svg10.dtd">
<svg version="1.0" xmlns="http://www.w3.org/2000/svg"
 width="1280.000000pt" height="960.000000pt" viewBox="0 0 1280.000000 960.000000"
 preserveAspectRatio="xMidYMid meet">
<metadata>
Created by potrace 1.16, written by Peter Selinger 2001-2019
</metadata>
<g transform="translate(0.000000,960.000000) scale(0.100000,-0.100000)"
fill="#000000" stroke="none">
<path d="M10650 7215 c-78 -58 -217 -195 -313 -309 -56 -66 -143 -169 -193
-227 -240 -278 -401 -501 -494 -683 -54 -105 -58 -111 -96 -120 -21 -6 -159
-11 -305 -11 -253 0 -268 1 -289 20 -29 27 -46 61 -55 113 -4 23 -12 42 -19
42 -6 0 -36 -25 -66 -56 -30 -30 -70 -64 -87 -75 l-33 -20 -782 31 -781 31
-42 29 c-71 49 -147 117 -204 183 -93 108 -285 405 -314 487 -32 86 -57 198
-57 253 0 20 -5 37 -11 37 -17 0 -2 -118 27 -216 34 -118 61 -174 154 -314
155 -234 250 -341 391 -441 53 -38 70 -45 99 -42 19 2 372 -10 784 -26 l749
-31 41 32 c22 17 62 51 87 75 l46 44 6 -42 c6 -45 28 -81 68 -111 21 -16 52
-19 219 -25 270 -8 444 14 447 57 3 32 86 182 168 305 146 216 503 643 723
864 84 84 155 151 158 149 2 -3 -7 -27 -20 -54 -69 -143 -372 -1043 -396
-1173 -15 -81 -7 -134 42 -296 83 -277 115 -424 148 -675 11 -85 23 -167 26
-182 l6 -28 -69 26 c-101 38 -140 64 -224 151 -99 102 -185 219 -260 355 -34
60 -80 135 -104 167 -43 59 -118 127 -145 132 -28 5 -94 -12 -285 -76 -268
-90 -260 -86 -279 -141 -9 -26 -16 -56 -16 -66 0 -23 -7 -23 -55 2 -22 11 -52
20 -68 20 -33 0 -224 -83 -412 -178 -91 -46 -145 -81 -182 -117 -48 -46 -53
-55 -53 -94 0 -24 7 -70 16 -103 8 -33 13 -62 11 -64 -2 -2 -28 6 -58 19 -47
19 -72 22 -199 22 -242 0 -382 -42 -775 -232 -339 -164 -406 -193 -560 -245
-66 -22 -175 -59 -242 -84 -67 -24 -140 -48 -162 -53 -41 -9 -41 -9 -66 33
-14 23 -28 57 -31 74 -4 18 -11 32 -16 32 -14 0 1 -59 28 -109 13 -24 21 -47
18 -52 -3 -5 1 -9 8 -9 7 0 49 -34 93 -75 84 -79 391 -319 517 -404 40 -27
129 -80 197 -117 l124 -69 -72 -3 c-51 -2 -118 6 -229 29 -483 97 -848 217
-1203 395 -239 120 -346 191 -432 284 -73 81 -91 82 -27 2 39 -48 150 -139
218 -178 17 -10 32 -21 32 -25 0 -12 -115 -35 -350 -68 -74 -11 -207 -34 -295
-51 -88 -17 -189 -36 -225 -42 -36 -5 -123 -21 -195 -33 -238 -43 -305 -48
-498 -41 -421 16 -527 28 -702 85 l-30 9 31 1 c18 1 76 15 130 33 91 29 104
37 166 96 60 58 73 65 116 70 27 2 75 -3 111 -12 74 -19 74 -19 66 -6 -10 16
-87 32 -152 31 -58 -1 -249 -27 -264 -36 -3 -3 -33 -12 -65 -21 -266 -72 -234
-67 -454 -68 l-205 0 -140 48 c-77 26 -143 50 -147 54 -4 4 16 45 44 92 86
143 253 294 498 449 47 30 128 82 180 117 114 75 229 138 535 294 282 143 570
263 865 360 63 20 158 56 210 78 52 22 187 68 300 101 513 150 717 249 808
394 49 79 80 138 196 377 114 235 189 343 344 498 114 115 123 133 21 45 -166
-144 -308 -355 -438 -650 -48 -110 -121 -240 -168 -303 -84 -109 -300 -207
-753 -340 -134 -39 -274 -85 -310 -102 -36 -16 -141 -56 -235 -88 -186 -63
-521 -195 -655 -257 -185 -86 -603 -311 -735 -396 -281 -180 -311 -201 -370
-246 -122 -93 -212 -180 -261 -252 -65 -94 -106 -171 -96 -181 4 -4 66 -28
137 -53 163 -56 257 -70 441 -61 123 5 143 4 148 -10 3 -8 10 -12 16 -9 6 4 7
12 4 18 -5 9 -4 9 6 0 8 -8 20 -9 36 -3 19 8 26 5 34 -10 15 -28 12 -37 -5
-14 -15 19 -15 19 -9 -1 l7 -20 -16 20 c-16 20 -16 20 -17 -5 0 -35 33 -52
160 -83 138 -34 149 -35 260 -42 52 -3 154 -10 225 -16 309 -22 398 -12 1140
130 83 16 177 32 210 36 99 11 229 35 301 55 l69 19 175 -88 c189 -96 269
-129 515 -215 390 -136 947 -249 1015 -206 21 13 14 17 -135 101 -71 39 -157
90 -190 112 -122 82 -432 324 -508 396 l-77 74 122 42 c525 181 473 160 903
368 345 167 516 217 737 217 109 -1 163 -12 261 -54 22 -10 23 19 2 88 -8 27
-15 72 -15 99 0 46 3 54 43 92 69 65 517 285 582 285 18 0 53 -11 79 -25 l47
-25 8 23 c5 12 12 38 16 57 14 69 19 72 262 153 125 42 244 79 264 82 34 6 38
4 110 -73 44 -48 94 -115 123 -168 118 -211 258 -396 364 -479 63 -49 231
-123 241 -106 9 14 -43 399 -70 526 -12 55 -42 170 -66 255 -96 330 -96 335
-64 461 51 196 347 1055 398 1153 21 41 4 51 -37 21z"/>
</g>
</svg>
