<?xml version="1.0" standalone="no"?>
<!DOCTYPE svg PUBLIC "-//W3C//DTD SVG 20010904//EN"
 "http://www.w3.org/TR/2001/REC-SVG-20010904/DTD/svg10.dtd">
<svg version="1.0" xmlns="http://www.w3.org/2000/svg"
 width="1038.000000pt" height="581.000000pt" viewBox="0 0 1038.000000 581.000000"
 preserveAspectRatio="xMidYMid meet">
<metadata>
Created by potrace 1.16, written by Peter Selinger 2001-2019
</metadata>
<g transform="translate(0.000000,581.000000) scale(0.100000,-0.100000)"
fill="#000000" stroke="none">
<path d="M8240 5670 c-277 -37 -657 -124 -1104 -254 -241 -69 -306 -81 -531
-95 -192 -12 -243 -37 -298 -146 -45 -91 -77 -277 -77 -450 0 -78 5 -100 33
-169 43 -107 63 -121 170 -120 86 1 174 28 498 153 58 22 146 47 194 56 87 15
234 18 289 6 l28 -6 -87 -120 c-104 -142 -171 -228 -241 -310 -28 -33 -78 -92
-110 -132 -126 -153 -371 -420 -600 -654 -163 -167 -175 -178 -235 -198 -123
-41 -228 -24 -352 59 -89 60 -252 188 -332 260 -39 36 -99 87 -133 112 -89 67
-258 155 -319 166 l-53 9 0 -41 c0 -69 67 -358 181 -781 27 -99 58 -236 70
-305 22 -121 22 -127 6 -233 -18 -120 -43 -184 -104 -263 -119 -157 -351 -280
-783 -413 -403 -124 -694 -162 -981 -126 -163 21 -212 40 -314 122 -62 50
-154 169 -202 260 -16 29 -30 53 -33 53 -3 0 -16 -19 -30 -41 -14 -22 -41 -52
-60 -67 -19 -15 -53 -43 -75 -63 -84 -78 -154 -95 -397 -100 -71 -2 -128 -6
-128 -9 0 -6 91 -43 280 -114 l65 -25 -135 0 c-143 -1 -393 21 -463 40 -49 13
-114 44 -141 68 -34 30 -59 95 -153 399 -70 227 -107 331 -149 413 -352 702
-648 1035 -1147 1289 -160 81 -180 88 -207 69 -12 -8 0 -24 67 -87 112 -105
236 -259 312 -387 152 -256 316 -687 392 -1035 46 -211 61 -356 66 -620 l4
-255 -222 -445 c-212 -425 -262 -518 -406 -746 -34 -56 -63 -104 -63 -108 0
-10 52 -7 105 8 199 53 337 179 639 585 86 117 215 260 288 322 27 22 73 49
103 60 51 18 59 18 125 4 83 -17 94 -23 166 -79 l54 -41 -38 -9 c-20 -5 -39
-10 -41 -12 -8 -7 24 -37 80 -75 62 -42 119 -118 119 -159 0 -61 -105 -157
-255 -233 -125 -63 -125 -64 -1 -72 60 -4 141 -5 179 -1 186 17 460 82 624
147 83 33 203 59 273 59 59 0 294 -27 390 -44 138 -26 364 -65 436 -76 l71
-11 -85 -167 c-47 -92 -101 -191 -119 -221 -27 -42 -32 -56 -21 -62 19 -13 31
-12 200 17 243 41 620 176 810 291 l91 55 161 9 c251 12 571 64 1048 169 535
117 842 264 1378 659 182 134 315 246 465 391 77 75 159 150 181 168 l42 32
208 0 c280 0 827 -17 1103 -35 123 -8 227 -13 229 -10 20 20 -157 207 -338
357 -159 131 -382 349 -434 422 -65 90 -78 139 -79 286 l-1 125 53 160 c52
153 119 332 231 610 29 72 70 180 90 242 21 62 55 143 74 180 45 85 160 229
212 265 77 53 77 53 435 55 220 1 351 5 380 13 140 37 251 157 364 393 82 170
102 285 70 395 -24 78 -33 82 -220 82 -151 0 -293 11 -605 45 -74 8 -202 20
-283 25 -154 11 -163 12 -364 55 -104 21 -146 25 -285 24 -93 -1 -221 -9 -298
-19z m616 -30 c77 -17 193 -35 259 -41 112 -9 313 -28 673 -64 84 -8 219 -15
301 -15 128 0 150 -2 163 -17 40 -47 50 -164 23 -268 -18 -70 -109 -263 -154
-329 -54 -78 -142 -166 -191 -191 -76 -39 -144 -45 -475 -42 -298 2 -312 1
-356 -19 -59 -27 -114 -77 -190 -172 -69 -86 -115 -172 -154 -292 -16 -47 -71
-191 -122 -320 -121 -300 -184 -470 -227 -613 -31 -102 -35 -129 -37 -238 -1
-103 2 -134 20 -183 25 -71 99 -172 183 -251 35 -32 102 -97 150 -142 l88 -84
-21 -62 c-18 -52 -20 -77 -16 -162 3 -55 8 -108 13 -119 7 -18 -1 -18 -232
-12 -745 20 -828 20 -870 0 -21 -10 -117 -93 -214 -184 -242 -228 -431 -378
-741 -588 -275 -186 -485 -290 -772 -381 -312 -99 -1131 -251 -1355 -251 -103
0 -214 -18 -225 -36 -32 -55 -566 -267 -772 -307 -120 -24 -254 -41 -261 -34
-3 3 10 32 29 64 34 57 187 358 187 368 0 11 -57 26 -193 50 -78 14 -191 34
-252 45 -137 25 -228 37 -376 50 -125 11 -235 -1 -329 -36 l-45 -16 -90 40
c-139 62 -278 102 -356 102 l-67 0 -12 34 c-15 46 -71 109 -137 153 l-56 37
49 11 49 10 -71 57 c-87 71 -123 87 -217 94 -66 6 -78 4 -126 -21 -87 -43
-235 -197 -406 -420 -85 -110 -178 -229 -207 -265 -67 -81 -203 -192 -284
-230 -64 -31 -160 -58 -170 -47 -3 3 7 25 24 49 16 24 70 111 119 193 105 175
506 977 524 1048 16 64 6 439 -16 597 -34 245 -99 514 -176 723 -16 45 -29 82
-29 82 0 1 36 5 80 9 133 11 205 56 252 158 l21 47 44 -62 c128 -180 356 -610
398 -752 72 -243 159 -514 176 -546 43 -86 137 -132 314 -155 116 -15 545 -31
545 -21 0 11 -71 42 -212 92 -76 27 -136 50 -134 52 2 2 62 6 132 8 71 2 151
8 179 13 47 10 51 9 82 -19 51 -44 103 -67 215 -93 139 -33 213 -40 286 -26
50 9 67 8 89 -4 29 -15 183 -40 313 -52 141 -12 401 19 639 76 243 59 601 185
737 260 175 97 309 229 355 349 33 88 51 238 39 318 -20 130 -42 229 -75 344
-19 64 -44 159 -55 210 -11 52 -22 104 -25 116 -4 17 5 27 48 54 56 34 207
156 207 167 0 4 11 19 23 34 l24 27 69 -63 c76 -69 294 -237 363 -281 107 -66
213 -81 328 -43 66 22 73 28 238 194 244 247 516 544 634 693 25 31 67 81 94
111 54 59 296 379 316 418 7 13 11 26 8 28 -13 14 -144 25 -222 19 -129 -10
-211 -30 -370 -92 -322 -126 -433 -152 -517 -119 -38 14 -45 22 -62 68 -44
125 -48 169 -31 332 23 221 58 324 131 384 50 41 102 52 290 63 198 10 228 17
609 130 225 66 627 158 915 209 97 17 302 29 416 24 63 -2 156 -16 240 -34z"/>
</g>
</svg>
